# xmcd CD database file
#
# Track frame offsets:
#	150
#	14630
#	29127
#	44717
#	56255
#	73127
#	80395
#	89547
#	106760
#	121585
#	140825
#	150717
#
# Disc length: 2135 seconds
#
# Revision: 5
# Processed by: cddbd v1.5.2PL0 Copyright (c) Steve Scherf et al.
# Submitted via: CDex 1.70beta2
#
DISCID=a608550c
DTITLE=Modugno, Domenico  - I grandi successi originali CD1
DYEAR=2000
DGENRE=Pop
TTITLE0=Lu pisce spada
TTITLE1=Io, mammeta e tu
TTITLE2=Vecchio frack
TTITLE3=La donna riccia
TTITLE4=Resta cu mme
TTITLE5=Le farfalle
TTITLE6=nel bl? dipinto di bl?
TTITLE7=Meraviglioso
TTITLE8=Tu si 'na cosa grande
TTITLE9=Come hai fatto
TTITLE10=Io
TTITLE11=Marinai, donne e guai
EXTD=YEAR: 2000
EXTT0=
EXTT1=
EXTT2=
EXTT3=
EXTT4=
EXTT5=
EXTT6=
EXTT7=
EXTT8=
EXTT9=
EXTT10=
EXTT11=
PLAYORDER=
